# xmcd
#
# Track frame offsets:
#	150
#	20404
#	39947
#	61368
#	80465
#	96665
#	112507
#	125230
#	143211
#	160125
#	181843
#	201706
#	219828
#	242619
#	262232
#	283220
#	312297
#
# Disc length: 4565 seconds
#
# Revision: 1
# Processed by: cddbd v1.5.1PL0 Copyright (c) Steve Scherf et al.
# Submitted via: audiograbber 1.83.01
#
DISCID=fa11d311
DTITLE=Various Artist - Doommanuia. (2004)
DYEAR=1900
DGENRE=
TTITLE0=Cool Grey. - Timerunner. (Original Mix)
TTITLE1=Due Project. - Millennium Theme. (Cool Mix)
TTITLE2=Radium. - Back Again For Bang. (Mental Miracle Rmx)
TTITLE3=David Gainsford. - Bird In Hand.
TTITLE4=Skam. - Do You Like This? (Original Skammix)
TTITLE5=Digimind. - Scream. (Radio Mix)
TTITLE6=Feel Good. - Symphony. (Club Mix)
TTITLE7=Motomouse and Autocat. - Obsession. (Tribe Mix)
TTITLE8=Dj Dave. - Acid Sys. (Hi-Crew Rmx)
TTITLE9=David Gainsford. - Good Engine.
TTITLE10=Tropikal Breeze. - Silent Beach. (Night On A Ionic Beach Mix)
TTITLE11=FJ Project. - Crazy. (Release Mix)
TTITLE12=Mclaren. - Mondid. (Electro Mix)
TTITLE13=OS4. - Dream Come True. (Techno Punish Mix)
TTITLE14=2 Disciples. - Make This World A Better Place. (Overdub Mix)
TTITLE15=Mister Mystic. - The Mental Journey. (Club Mix)
TTITLE16=Endless Wave. - I Know Your Dreams. (Club Mix)
EXTD=
EXTT0=
EXTT1=
EXTT2=
EXTT3=
EXTT4=
EXTT5=
EXTT6=
EXTT7=
EXTT8=
EXTT9=
EXTT10=
EXTT11=
EXTT12=
EXTT13=
EXTT14=
EXTT15=
EXTT16=
PLAYORDER=
